<?xml version="1.0" encoding="utf-8"?>
<!-- Generator: Adobe Illustrator 18.1.0, SVG Export Plug-In . SVG Version: 6.00 Build 0)  -->
<svg version="1.1" id="Your_Icon" xmlns="http://www.w3.org/2000/svg" xmlns:xlink="http://www.w3.org/1999/xlink" x="0px" y="0px"
	 viewBox="-431 308.4 66.7 54.2" enable-background="new -431 308.4 66.7 54.2" xml:space="preserve">
<polygon fill="#FFFFFF" points="-431,336.9 -430.4,338.6 -420.1,338 -425.1,343.3 -419.4,346.7 -415.9,343.7 -415.2,342.1 -416,341 
	-406.8,344.6 -417.4,353.7 -414.3,355.6 -415.8,353.8 -403.7,344.7 -408.8,341.4 -410.4,340.5 -408.5,341.2 -405.7,340.1 
	-408.9,336 -405,339.8 -400.2,344.9 -400.6,357 -397.9,362.5 -399.5,356.7 -398.7,344.8 -403.6,339.1 -401.5,336.5 -398.2,338.6 
	-398.5,335.8 -397.6,339 -393.2,355.2 -385.9,359.1 -392.1,354.2 -395.7,339.9 -386.7,346.1 -377.4,341.9 -370.3,342 -403.6,332.3 
	-370,327.3 -369.5,321.6 -366,319.6 -364.4,308.4 -384.4,315 -408.2,327.9 -408.3,331.5 -417.9,336.7 -417.9,337.7 "/>
</svg>
